<?xml version="1.0" encoding="UTF-8"?>
<!DOCTYPE svg PUBLIC "-//W3C//DTD SVG 1.1//EN" "http://www.w3.org/Graphics/SVG/1.1/DTD/svg11.dtd">
<!-- Creator: CorelDRAW -->
<svg xmlns="http://www.w3.org/2000/svg" xml:space="preserve" width="427.638mm" height="31.458mm" version="1.1" style="shape-rendering:geometricPrecision; text-rendering:geometricPrecision; image-rendering:optimizeQuality; fill-rule:evenodd; clip-rule:evenodd"
viewBox="0 0 42763.8 3145.8"
 xmlns:xlink="http://www.w3.org/1999/xlink"
 xmlns:xodm="http://www.corel.com/coreldraw/odm/2003">
 <defs>
  <style type="text/css">
   <![CDATA[
    .fil0 {fill:#090909}
   ]]>
  </style>
 </defs>
 <g id="Camada_x0020_1">
  <metadata id="CorelCorpID_0Corel-Layer"/>
  <g id="_1728915973168">
   <path class="fil0" d="M42111.56 2966.5c-6.82,-21.47 -2.35,-114.8 -2.56,-143.84 -0.44,-55.77 11.6,-82.22 81.17,-83.54 56.71,-1.07 115.33,0.21 172.3,0.13 154.5,-0.21 132.76,19.77 132.27,186.22 -0.29,103.64 -70.2,80.73 -255.11,80.87 -59.37,0.04 -114.41,3.3 -128.07,-39.84zm-35771.87 -2550.27c-22.88,-37.81 -11.32,-66.64 34.57,-94.41l199.61 -120.77c50.24,-30.39 107.8,-70.76 170.12,-70.76l233.3 0c50.37,0 72.21,22.24 72.21,62.87 0,116.38 25.46,204.18 -78.35,204.18 -78.36,0 -136.88,1.54 -180.56,1.25 -56.06,-0.38 -56.36,11.34 -90.23,36.57 -35.29,26.25 -80,50.9 -117.98,74.27 -159.86,98.43 -142.03,73.15 -242.69,-93.2zm-466.7 218.45c22.74,-25.12 111.77,-70.8 147.93,-92.26 157.05,-93.19 143.33,-89.08 224.54,47.35 65.76,110.41 46.71,102.22 -130.51,207.39 -154.46,91.69 -143.61,85.74 -221.92,-46.03 -23.06,-38.78 -55.47,-77.3 -20.04,-116.45zm-333.79 504.15c-87.59,51.98 -103.26,0.54 -141.49,-63.9 -83.27,-140.44 -86.2,-111.53 195.36,-278.61 42.51,-25.22 75.31,-20.51 96.78,15.68 71.59,120.64 126.18,162.53 28.94,220.25l-179.59 106.58zm-302.99 63.5c22.5,35.47 43.26,65.29 12.8,102.3 -11.5,13.98 -238.45,160.16 -282.25,157.56 -41.02,-2.44 -65.49,-68.46 -86.61,-104.02 -14.68,-24.71 -29.5,-43.14 -35.89,-61.34 -8.99,-20.48 -9.2,-39.54 11.17,-62.9 24.43,-28.01 108.27,-69.49 146.63,-92.27 47.5,-28.18 105.05,-72.74 144.1,-62.1 35.62,9.7 62.48,76.26 81.77,108.67 2.93,4.93 5.69,9.62 8.28,14.1zm-889.17 332.51c22.75,-25.11 111.79,-70.8 147.94,-92.25 157.05,-93.2 143.32,-89.08 224.53,47.34 65.76,110.43 46.73,102.23 -130.5,207.39 -154.45,91.69 -143.62,85.76 -221.92,-46.02 -23.08,-38.77 -55.47,-77.31 -20.05,-116.46zm-333.78 504.16c-87.59,51.97 -103.26,0.54 -141.49,-63.92 -83.28,-140.42 -86.2,-111.5 195.37,-278.58 42.5,-25.23 75.29,-20.54 96.77,15.66 71.6,120.64 126.17,162.54 28.95,220.25l-179.6 106.59zm-682.03 100.42c20.54,-26.68 108.63,-70.69 144.3,-91.85 41.31,-24.52 99.83,-72.06 140.61,-64.05 42.26,8.3 63.59,68.27 85.26,104.63 25.02,42.08 56.15,74.76 21.67,116.65 -11.5,13.98 -238.45,160.15 -282.25,157.56 -41.02,-2.45 -65.49,-68.47 -86.61,-104.01 -28.87,-48.6 -58.32,-72.93 -22.98,-118.93zm2187.16 606.23c32.38,-9.99 132.26,-3.84 174.31,-3.84 182.62,0 168.71,-3.46 168.93,155.3 0.2,128.52 -11.99,111.75 -218.07,111.75 -179.62,0.02 -167.27,0.45 -167.36,-152.84 -0.05,-45.11 -8.25,-94.78 42.19,-110.37zm-544.33 263.21c-101.85,0 -89.08,-52.23 -89.06,-127.16 0.05,-163.27 -17.22,-139.89 310.18,-139.89 49.43,0 75.23,20.78 75.23,62.87 0,140.28 25.56,204.16 -87.51,204.18l-208.84 0zm-1227.33 -267.83c32.38,-9.99 132.26,-3.84 174.31,-3.84 182.62,0 168.71,-3.46 168.93,155.3 0.2,128.52 -11.99,111.75 -218.07,111.75 -179.62,0.02 -167.27,0.45 -167.36,-152.84 -0.05,-45.11 -8.25,-94.78 42.19,-110.37zm-544.33 263.21c-101.85,0 -89.08,-52.23 -89.06,-127.16 0.05,-163.27 -17.22,-139.89 310.18,-139.89 49.43,0 75.23,20.78 75.23,62.87 0,140.28 25.56,204.16 -87.51,204.18l-208.84 0zm1135.1 -262.54c35.3,-11.63 128.57,-4.51 173.19,-4.51 55.23,0 127.46,-8.96 155.61,20.12 25.68,26.53 14.82,97.47 14.87,135.18 0.01,5.86 -0.01,11.41 -0.07,16.67 1.26,41.86 3.77,77.95 -41.21,94.2 -17.02,6.15 -286.79,16.04 -323.14,-8.55 -34.02,-23.04 -21.38,-92.3 -21.4,-133.65 -0.02,-28.75 -3.36,-52.17 0.44,-71.08 2.72,-22.18 12.27,-38.69 41.71,-48.38zm-1970.44 395.42l3580.45 8.72 0 0.48 196.16 0 36618.04 0c0,-209.44 0,-2890.96 0,-3145.74l-36161.51 -0.04 0 -0.01 -3398.96 2141.46c-151.65,326.52 -245.65,467.58 -372.8,593.54 24.75,1.4 47.03,6.07 60.76,18.34 32.11,28.7 19.85,91.16 19.92,133.49 0.05,48.96 10.14,92.94 -40.89,111.38 -17.02,6.15 -286.79,16.04 -323.14,-8.55 -1.79,-1.21 -3.45,-2.56 -4.99,-4.02 -51.4,43.6 -108.55,92.93 -173.04,150.95zm3742.84 -391.03c10.68,-3.36 26.39,-5.11 44.33,-5.9l0.11 -0.7c13.23,-0.46 27.65,-0.28 42.9,-0.24 59.1,0.16 119.55,-1.18 178.43,-0.17 65.9,1.12 84.37,23.87 84.35,78.26 -0.02,27.38 3.58,126.09 -2.08,144.03 -15.52,49.36 -59.63,45.15 -119.41,44.99 -181.9,-0.48 -264.38,23.36 -264.38,-75.61 0,-33.97 -4.62,-119.7 2.25,-147.7 4.92,-20.11 16.72,-31.03 33.5,-36.96zm35410.85 220.41c-7.45,-24.87 -2.81,-112.39 -3,-143.84 -0.68,-106.35 65.97,-83.13 255.07,-83.41 156.82,-0.23 130.22,22.42 130.75,186.26 0.19,54.42 -15.48,80.22 -81.37,81.01 -57.05,0.69 -115.03,-0.22 -172.22,-0.18 -59.59,0.06 -116.03,4.35 -129.23,-39.84zm-2362.79 0c-7.42,-21.27 -3.24,-115.12 -3.38,-143.86 -0.49,-106.19 59.53,-83.15 253.5,-83.39 58.95,-0.07 116.77,-4.03 129.66,42.79 6.96,25.25 2.46,111.76 2.63,143.43 0.27,57.23 -15.04,80.47 -82.87,81.09 -57.16,0.53 -115.01,-0.28 -172.27,-0.22 -59.53,0.06 -112.11,3.56 -127.27,-39.84zm-590.81 0c-8.1,-26.08 -3.82,-111.77 -3.8,-143.86 0.1,-106.61 71.95,-83.13 255.07,-83.39 158.71,-0.23 129.6,22.58 130.71,186.24 0.38,55.55 -14.34,80.28 -81.28,81.05 -57.09,0.65 -115.06,-0.24 -172.27,-0.2 -58.52,0.06 -114.69,4.33 -128.43,-39.84zm-216.48 10.28c-24.06,36.6 -75.56,29.58 -134.18,29.56 -192.08,-0.06 -243.56,24.51 -242.71,-91.18 1.23,-167.54 -22.9,-175.96 144.43,-175.91 51.56,0.02 129.89,-3.89 178.2,0.72 61.71,5.89 63.26,40.21 62.95,92.99 -0.2,31.58 5.49,122.24 -8.69,143.82zm-2737.16 -10.28c-7.21,-22.4 -2.79,-114.21 -2.98,-143.86 -0.63,-106.37 65.87,-83.15 253.5,-83.39 156.99,-0.19 131.65,20.74 132.25,186.22 0.22,57.25 -14.58,80.18 -82.85,81.03 -57.04,0.71 -115.05,-0.22 -172.24,-0.16 -58.57,0.08 -113.61,3.96 -127.68,-39.84zm-590.79 0c-7.59,-23.13 -3.27,-113.75 -3.39,-143.84 -0.19,-56.22 13.3,-82.4 82.75,-83.58 56.83,-0.95 115.25,0.25 172.3,0.17 158.75,-0.23 129.86,22.93 130.73,186.26 0.29,54.68 -16.45,79.94 -81.3,80.99 -56.83,0.93 -115.23,-0.2 -172.28,-0.16 -60.55,0.06 -114.06,5.2 -128.81,-39.84zm-2953.67 0c-6.77,-21.39 -2.37,-114.94 -2.56,-143.86 -0.71,-106.23 63.96,-83.13 253.49,-83.39 156.05,-0.21 132.33,20.64 132.28,186.22 0,55.98 -16.01,80.3 -82.87,81.07 -57.07,0.65 -115.04,-0.24 -172.25,-0.2 -59.29,0.06 -114.45,3.32 -128.09,-39.84zm-590.72 0c-7.49,-24.26 -2.8,-112.78 -3.02,-143.84 -0.77,-106.93 75.69,-83.15 255.02,-83.41 56.4,-0.09 116.15,-3.75 128.31,43.13 6.85,26.43 2.35,110.72 2.44,143.13 0.17,55.11 -15.5,79.98 -81.32,80.99 -56.9,0.87 -115.2,-0.2 -172.27,-0.16 -60.41,0.06 -115.23,5.44 -129.16,-39.84zm-2362.81 0c-7.3,-20.46 -3.36,-115.77 -3.48,-143.86 -0.38,-106 59.39,-83.13 253.55,-83.39 158.39,-0.21 131.35,19.69 132.27,186.22 0.58,103.44 -64.51,80.69 -255.12,80.87 -59,0.06 -111.81,3.34 -127.22,-39.84zm-216.52 10.28c-23.82,37.18 -75.11,29.58 -135.35,29.56 -189.61,-0.02 -242.13,24.57 -241.19,-91.18 0.27,-30.19 -5.68,-122.91 6.58,-144.95 21.16,-38.04 83.14,-30.99 136.34,-30.96 192.41,0.08 241.79,-24.21 241.09,93.73 -0.17,31.36 6.24,122.34 -7.47,143.8zm-590.81 0c-23.97,36.8 -75.62,29.58 -134.19,29.56 -53.17,0 -126.54,3.58 -177.23,-0.2 -60.26,-4.49 -65.89,-38.18 -65.48,-90.98 1.31,-171.85 -19.81,-175.96 144.44,-175.91 198.75,0.08 241.79,-23.1 241.14,93.71 -0.19,32.39 5.95,121.37 -8.68,143.82zm-2737.15 -10.28c-7.11,-21.19 -2.8,-115.1 -3,-143.86 -0.67,-106.93 75.77,-83.15 253.5,-83.39 157.04,-0.21 131.87,21.55 132.28,186.22 0.14,57.88 -13.88,80.47 -82.87,81.07 -57.22,0.49 -114.96,-0.26 -172.25,-0.2 -59.22,0.08 -113.22,3.24 -127.66,-39.84zm-590.57 0c-7.98,-24.89 -3.55,-112.47 -3.65,-143.86 -0.41,-106.61 71.36,-83.13 255.07,-83.39 56.42,-0.09 116.85,-4.29 128.58,42.91 6.77,27.14 1.96,110.27 2.13,143.33 0.55,103.38 -64.88,80.67 -253.55,80.85 -60.31,0.06 -113.99,5.78 -128.58,-39.84zm-2953.5 0c-7.23,-22.36 -2.78,-114.19 -2.95,-143.84 -0.7,-106.25 63.7,-83.15 253.48,-83.41 156.12,-0.21 131.93,21.17 132.27,186.22 0.24,103.42 -66.67,80.71 -255.12,80.87 -58.66,0.06 -113.6,3.78 -127.68,-39.84zm-590.88 0c-7.64,-23.92 -3.1,-113.08 -3.29,-143.86 -0.7,-106.41 67.76,-83.13 255.05,-83.39 158.27,-0.23 130.02,23.72 130.72,186.26 0.44,103.4 -67.63,80.71 -253.57,80.83 -60.81,0.04 -114.45,5.46 -128.91,-39.84zm-2362.91 0c-7.59,-21.84 -3.53,-114.8 -3.6,-143.86 -0.24,-106.31 61.42,-83.15 253.52,-83.39 158.88,-0.19 131.5,21.57 132.28,186.22 0.26,57.43 -14.68,80.45 -82.85,81.07 -57.17,0.55 -115.01,-0.26 -172.27,-0.2 -59.2,0.08 -112.13,3.26 -127.08,-39.84zm-590.59 0c-6.87,-21.47 -2.39,-114.78 -2.61,-143.84 -0.87,-106.19 62.7,-83.13 253.47,-83.41 159.48,-0.23 129.5,22.32 130.71,186.24 0.77,103.22 -62.93,80.67 -253.55,80.85 -59.39,0.06 -114.16,3.54 -128.02,-39.84zm-216.89 10.28c-24.28,36.84 -74.86,29.58 -134.18,29.56 -190.85,-0.04 -243.66,24.51 -242.72,-91.18 1.36,-167.95 -21.28,-175.98 144.44,-175.89 196.09,0.06 241.87,-23.26 241.14,93.69 -0.21,32.27 5.95,121.59 -8.68,143.82zm-2737 -10.28c-7.11,-20.66 -3,-115.57 -3.14,-143.86 -0.53,-106.83 75.86,-83.17 253.5,-83.39 158.19,-0.21 131.52,21.25 132.27,186.22 0.46,103.34 -63.86,80.73 -255.12,80.87 -59.48,0.04 -112.61,3.38 -127.51,-39.84zm-590.76 0c-7.88,-25.15 -3.56,-112.37 -3.63,-143.86 -0.22,-106.87 78.64,-83.13 255.1,-83.39 158.53,-0.23 129.68,22.34 130.72,186.24 0.34,54.3 -16.03,80.33 -81.3,81.05 -57.09,0.65 -115.05,-0.24 -172.27,-0.2 -59.22,0.04 -115.03,3.54 -128.62,-39.84zm-216.23 10.28c-24.02,36.42 -75.84,29.58 -134.24,29.56 -191.86,-0.06 -243.65,24.53 -242.71,-91.18 1.42,-171.43 -21.52,-175.96 144.44,-175.89 197.51,0.06 241.77,-23.28 241.16,93.69 -0.14,30.43 4.79,123.41 -8.65,143.82zm-2737.22 -10.28c-7.23,-22.08 -2.74,-114.39 -2.93,-143.86 -0.41,-55.53 12.55,-81.84 81.11,-83.54 56.24,-1.39 115.71,0.23 172.34,0.15 156.48,-0.21 132.01,19.97 132.28,186.22 0.09,56.48 -16.08,80.47 -82.83,81.09 -57.16,0.55 -115.03,-0.28 -172.29,-0.22 -59.39,0.08 -113.61,3.24 -127.68,-39.84zm-590.74 0c-7.76,-24.06 -3.31,-113.02 -3.46,-143.86 -0.53,-106.53 69.26,-83.09 255.07,-83.39 158.37,-0.25 130,23.21 130.73,186.26 0.43,103.62 -68.44,80.69 -253.57,80.83 -60.72,0.06 -114.14,5.52 -128.77,-39.84zm-2363 0c-7.67,-22.16 -3.58,-114.56 -3.66,-143.88 -0.12,-57.31 11.42,-81.76 81.23,-83.48 56.32,-1.37 115.61,0.19 172.3,0.11 159.79,-0.21 131.3,21.55 132.25,186.22 0.58,103.34 -62.56,80.67 -255.1,80.87 -58.64,0.08 -112.2,2.97 -127.02,-39.84zm-590.62 0c-6.87,-21.49 -2.44,-114.78 -2.66,-143.86 -0.8,-106.29 64.42,-83.13 253.5,-83.39 154.52,-0.21 132.71,19.73 132.25,186.22 -0.29,103.66 -69.77,80.69 -255.1,80.87 -59.36,0.06 -114.14,3.44 -127.99,-39.84zm-216.74 10.28c-24.19,37.85 -74.51,29.58 -134.36,29.56 -190.58,-0.06 -243.53,24.55 -242.69,-91.18 1.24,-167.89 -21.28,-175.96 144.42,-175.91 185.95,0.08 241.86,-24.88 241.11,93.71 -0.19,32.41 5.61,121.75 -8.48,143.82zm32114.43 -15.41c-5.93,-30.32 -0.73,-108.52 -0.9,-143.99 -0.5,-101.61 70.18,-77.59 262.74,-78.13 150.85,-0.45 120.98,30.45 121.56,191.54 0.17,52.5 -19.61,75.27 -84.42,75.73 -33.46,0.25 -233.21,3.89 -257.51,-4.24 -17.22,-5.77 -38.16,-23.91 -41.47,-40.91zm-3544.24 0c-6.84,-30.68 -2.42,-108.62 -2.27,-144.01 0.38,-101.9 79.46,-77.59 264.3,-78.11 150.01,-0.45 121.18,30.81 121.54,191.54 0.24,98.93 -82.77,75.15 -262.83,75.57 -56.39,0.12 -110.46,1.03 -120.74,-44.99zm-1984.27 10.27c-24.06,41.25 -69.04,34.74 -130.72,34.7 -196.07,-0.12 -249.78,23.56 -248.88,-86.02 1.42,-172.02 -22.98,-181.18 138.32,-181.07 200.8,0.16 246.41,-22.94 245.78,88.55 -0.17,25.84 4.31,128.73 -4.5,143.84zm-2150.97 -10.27c-6.68,-29.85 -2.57,-109.43 -2.23,-143.95 0.56,-58.26 17.1,-77.53 87.44,-78.34 57.12,-0.64 114.99,0.29 172.23,0.17 153.45,-0.31 126.15,26.22 126.2,191.42 0.03,98.08 -70.37,75.35 -261.36,75.69 -58.3,0.1 -111.93,1.36 -122.28,-44.99zm-2363.08 0c-5.9,-29.71 -0.63,-108.9 -0.85,-143.99 -0.62,-101.75 74.05,-77.61 262.76,-78.13 144.37,-0.43 125.27,27.7 123.02,191.52 -1.36,99.15 -93.73,75.23 -264.31,75.59 -33.06,0.06 -110.05,8.03 -120.62,-44.99zm-3544.29 0c-6.65,-29.33 -2.42,-109.79 -2.15,-144.01 0.8,-101.94 79.49,-77.53 264.31,-78.14 150.77,-0.48 121,30.3 121.56,191.57 0.34,98.87 -82.94,75.21 -262.86,75.57 -56.24,0.1 -110.53,0.57 -120.86,-44.99zm-1983.95 10.27c-24.81,42.06 -68.02,34.74 -130.92,34.7 -195.53,-0.14 -249.82,23.66 -248.9,-86.02 0.24,-29.41 -4.62,-125.58 5.22,-146.8 18.26,-39.33 77.33,-34.3 133.12,-34.27 192.05,0.14 247.67,-23.81 247.33,88.55 -0.07,28.55 5.32,124.91 -5.85,143.84zm-2151.12 -10.27c-5.8,-31.21 -0.56,-107.79 -0.75,-143.95 -0.58,-100.86 67.9,-77.79 258.14,-78.17 153.36,-0.31 126.18,26.02 126.21,191.42 0,98.16 -73.32,75.37 -261.36,75.69 -56.88,0.08 -113.58,1.56 -122.24,-44.99zm-2363.08 0c-5.9,-29.59 -0.7,-109.02 -0.89,-143.99 -0.29,-55.77 16.03,-77.29 84.34,-78.3 59.01,-0.89 119.22,0.33 178.42,0.17 145.91,-0.45 124.66,28.25 123.06,191.52 -0.99,99.05 -88.09,75.15 -264.36,75.59 -33.78,0.08 -110.19,7.1 -120.57,-44.99zm-3544.19 0c-5.83,-32.12 -0.46,-107.12 -0.72,-144.01 -0.78,-101.57 70.39,-77.59 262.73,-78.11 150.78,-0.43 121.03,31.52 121.54,191.54 0.29,99.05 -91.17,75.23 -262.83,75.57 -31.17,0.06 -111.05,8.17 -120.72,-44.99zm-4135.1 0c-5.85,-30.28 -0.75,-108.52 -0.89,-143.95 -0.39,-100.74 64.81,-77.75 258.16,-78.17 153.97,-0.35 126.02,26.22 126.21,191.4 0.1,98.16 -72.84,75.35 -261.36,75.71 -34.55,0.06 -111.77,8.56 -122.12,-44.99zm-1772.19 0c-6.7,-27.53 -2.44,-111.1 -2.22,-144.03 0.34,-53.91 19.12,-77.08 84.29,-78.26 58.81,-1.05 119.37,0.31 178.44,0.17 150.22,-0.39 122.51,22.52 123.09,191.48 0.34,98.81 -79.75,75.21 -264.38,75.63 -61.96,0.14 -108.26,0.1 -119.22,-44.99zm-4135.07 0c-5.93,-30.05 -0.66,-108.66 -0.87,-144.01 -0.37,-55.57 16.83,-77.31 84.34,-78.3 59.03,-0.85 119.22,0.35 178.42,0.19 150.79,-0.45 120.95,30.45 121.51,191.54 0.34,99.07 -85.1,75.15 -262.81,75.57 -34.58,0.08 -110.29,7.24 -120.59,-44.99zm30716.99 -5.14c-5.13,-37.35 -1,-103.76 -0.83,-144.04 0.39,-96.65 92.5,-72.3 268.98,-72.97 64.73,-0.24 109.25,0.31 116.17,52.87 4.91,37.23 1.23,103.92 0.77,143.86 -1.04,93.69 -98.52,69.85 -270.52,70.43 -57.09,0.18 -107.66,0.14 -114.57,-50.15zm-799.68 10.27c-16.46,44.21 -61.18,39.94 -123.76,39.84 -59.15,-0.08 -119.36,0.99 -178.34,0.16 -66.06,-0.95 -80.21,-27.56 -79.8,-80.97 1.31,-170.92 -25.7,-186.55 129.16,-186.28 183.46,0.3 256.86,-24.27 256.59,83.23 -0.07,28.94 3.82,123.46 -3.85,144.02zm-2744.78 -10.27c-4.64,-38.91 -0.53,-102.57 -0.44,-144.06 0.22,-96.61 92.16,-72.28 269,-72.95 138.88,-0.52 119.99,32.95 116.92,196.73 -1.74,93.67 -106.71,69.91 -270.52,70.43 -56.76,0.16 -108.8,1.42 -114.96,-50.15zm-208.76 10.27c-16.93,42.75 -67.98,39.92 -124.61,39.84 -185.38,-0.26 -258.41,23.64 -258.17,-80.79 0.07,-31.04 -4.23,-122.32 3.73,-146.35 14.75,-44.59 64.9,-40.06 125.45,-39.95 58.21,0.1 120.93,-1.97 178.51,-0.11 66.31,2.17 78.5,29.12 78.08,83.4 -0.19,25.84 3.29,128.07 -2.99,143.96zm-2744.89 -10.27c-5.44,-35.75 -1.52,-105.14 -1.11,-144.02 1.04,-96.71 95.86,-72.38 268.93,-72.99 64.49,-0.22 110.22,-0.64 116.31,52.72 4.52,39.66 0.97,102.19 0.68,144.03 -0.63,93.71 -98.18,69.85 -270.6,70.41 -61.56,0.2 -106.78,-1.47 -114.21,-50.15zm-799.52 10.27c-18.16,46.66 -66.21,39.94 -124.25,39.84 -59.07,-0.08 -119.46,1.11 -178.34,0.16 -65.97,-1.09 -80.07,-27.52 -79.85,-80.97 0.7,-170.29 -23.58,-186.55 129.21,-186.28 187.4,0.32 257.29,-24.03 256.57,83.29 -0.17,27.08 3.6,126.11 -3.34,143.96zm-2744.86 -10.27c-5.13,-37.49 -0.99,-103.66 -0.82,-144.04 0.38,-96.65 93.73,-72.32 268.97,-72.97 138.42,-0.52 119.75,25.83 116.97,196.75 -1.52,93.55 -95.79,69.85 -270.57,70.41 -56.56,0.18 -107.64,0.45 -114.55,-50.15zm-3544.24 0c-4.81,-39.27 -0.63,-102.24 -0.63,-144.04 0,-96.63 91.51,-72.32 268.98,-72.97 139.74,-0.52 119.09,29.13 116.96,196.77 -1.18,93.65 -99.65,69.85 -270.57,70.37 -32.76,0.12 -107.78,6.74 -114.74,-50.13zm-209.03 10.27c-17.75,43.91 -67.47,39.92 -124.56,39.84 -183.64,-0.22 -258.33,23.68 -258.16,-80.79 0.26,-170.31 -21.41,-186.57 129.17,-186.3 189.76,0.34 257.35,-23.97 256.6,83.31 -0.22,27.44 4.06,126.41 -3.05,143.94zm-2744.59 -10.27c-5.59,-35.93 -1.82,-105.03 -1.33,-143.96 1.21,-96.66 95.86,-72.5 268.9,-73.05 141.85,-0.44 117.79,26.01 116.97,196.71 -0.44,93.67 -95.11,69.82 -270.57,70.45 -61.5,0.2 -106.4,-1.52 -113.97,-50.15zm-799.67 10.27c-18.23,46.68 -66.33,39.92 -124.34,39.84 -187.9,-0.26 -258.58,23.44 -258.17,-80.81 0.7,-170.01 -23.48,-186.55 129.18,-186.28 58.18,0.1 120.96,-1.99 178.49,-0.11 66.62,2.17 78.42,29.23 78.08,83.38 -0.17,26.88 3.51,126.73 -3.24,143.98zm-3544.36 0c-17.48,45.81 -66.99,39.94 -124.03,39.84 -182.04,-0.26 -258.75,23.68 -258.17,-80.81 0.95,-171.68 -24.25,-186.55 129.18,-186.28 185.94,0.32 256.91,-24.11 256.6,83.27 -0.08,27.77 3.58,125.26 -3.58,143.98zm-2744.84 -10.27c-4.74,-39.57 -0.65,-102.06 -0.6,-144.06 0.1,-96.61 92.25,-72.28 268.95,-72.95 138.01,-0.52 119.8,26.52 116.97,196.73 -1.55,93.69 -98.64,69.85 -270.55,70.43 -56.46,0.18 -108.72,0.35 -114.77,-50.15zm-208.98 10.27c-16.87,42.91 -68.16,39.92 -124.61,39.84 -183.08,-0.24 -258.38,23.72 -258.16,-80.79 0.34,-166.35 -23.36,-186.57 129.18,-186.3 193.24,0.34 257.27,-23.69 256.57,83.31 -0.17,27 3.75,126.81 -2.98,143.94zm-3335.26 -10.27c-4.42,-40.02 -0.55,-101.8 -0.41,-144.04 0.2,-56.44 22.49,-72.8 90.64,-73.13 59.36,-0.26 118.9,0.39 178.31,0.16 63.51,-0.24 108.51,1.95 115.84,52.91 5.12,35.57 1.91,105.5 1.06,143.82 -2.03,93.77 -101.01,69.89 -270.5,70.41 -55.38,0.18 -109.57,-1.7 -114.94,-50.13zm-208.78 10.27c-17.82,46.41 -67.08,39.94 -124.61,39.84 -186.39,-0.26 -258.41,23.58 -258.17,-80.79 0.41,-173.65 -21.13,-186.57 129.18,-186.3 189.52,0.34 257.37,-23.97 256.55,83.29 -0.19,26.63 3.53,127.08 -2.95,143.96zm30925.65 -20.54c0.07,-239.8 -38.35,-206.69 305.73,-206.69 105.15,0 80.26,77.83 79.8,196.41 -0.34,47.04 -22.66,70.62 -79.89,70.62l-227.26 0.04c-47.23,0 -78.38,-20.38 -78.38,-60.38zm-797.2 15.41c-15.72,49.97 -59.59,45.13 -119.44,44.99 -182.06,-0.42 -264.38,23.3 -264.38,-75.61 0,-205.22 -48.36,-197.77 301.53,-191.67 66.13,1.18 84.42,23.93 84.32,78.26 -0.05,27.51 3.68,125.91 -2.03,144.03zm-13586.8 0c-13.86,47.9 -55.69,45.13 -119.17,44.99 -59.46,-0.14 -119.02,0.39 -178.44,0.14 -66.18,-0.26 -86.16,-21.23 -85.96,-75.77 0.75,-204.35 -51.34,-198.02 301.55,-191.65 65.53,1.2 84.34,24.61 84.34,78.24 -0.02,29.85 4.09,121.92 -2.32,144.05zm-9245.02 -15.41c0.08,-232.42 -41.56,-208.39 299.5,-206.69 109.18,0.54 85.96,60.9 86.04,196.41 0.07,90.92 -89.72,70.66 -184.32,70.66 -80.81,0 -201.22,20.24 -201.22,-60.38zm-10042.46 0l0 -138.67c-0.12,-44.49 24.38,-68.02 78.35,-68.02l227.65 0c104.15,0 79.41,74.25 79.49,201.55 0.04,44.31 -26.82,65.52 -79.88,65.52l-227.07 0c-47.51,0 -78.54,-20.38 -78.54,-60.38zm23094.79 -2419.7c65.9,-14.5 294.32,-6.35 379.18,-6.35 888.56,0 1777.15,0 2665.71,0 126.88,0 260.63,-16.5 331.05,48.67 70.73,65.46 49.62,171.39 49.62,276.83l0.36 1592.1c0.05,77.51 -5.15,171.99 -140.83,200.68 -53.81,11.37 -305.71,3.62 -381.47,3.62l-2665.71 0c-122.46,0 -255.66,18.18 -329.17,-47.15 -68.43,-60.81 -49.86,-177.21 -49.86,-275.27l0.24 -1592.12c0.15,-84.39 6.6,-171.47 140.88,-201.01zm-3766.73 -1.09c61.88,-13.29 299.3,-5.26 380.74,-5.26 888.56,0 1777.15,0 2665.71,0 62.56,0 135.52,-2.87 196.82,0.44 220.39,11.94 181.8,209.43 182.02,325.06l0.26 1592.1c0.05,56.07 3.68,90.03 -29.64,132.88 -22.16,28.51 -54.05,55.57 -109.89,67.32 -57.48,12.09 -303.26,4.1 -380.84,4.1l-2665.71 0c-128.84,0 -252.68,19.26 -329.6,-46.81 -73.68,-63.3 -51.36,-173.02 -51.36,-275.61l0.29 -1592.12c-0.02,-86.78 5.56,-172.96 141.2,-202.1zm-18982.79 1984.25l-0.8 -1592.12c0,-288.11 -52.59,-397.37 286.68,-397.39l3052.67 -0.04c107.12,-0.28 213.31,31.99 225.93,135.79 8,65.85 1.26,528.45 1.26,636.56l0.29 955.26c0,163.36 43.55,326.02 -113.27,383.15 -50.06,18.22 -118.47,11.16 -175.63,11.18l-3052.67 0c-71.56,0.11 -102.37,-2.38 -152.66,-30.47 -30.93,-17.27 -63.77,-57.13 -71.8,-101.92zm3907.16 -1982.39c59.1,-14.76 297.12,-7.12 377.29,-7.12 888.56,0 1777.15,0 2665.71,0 134.38,0 253.67,-19.03 331.39,48.43 74.77,64.87 53.32,164.77 53.51,271.93l0.15 1273.68c0.17,106.15 0.09,212.3 0.12,318.42 0,80.16 -3.46,171.81 -134.74,204.13 -50.91,12.51 -306.24,5.31 -379.42,5.31l-2665.71 0c-126.83,0 -255.07,19.11 -332.67,-44.22 -77.19,-62.97 -54.41,-166.71 -54.43,-273.06l0.29 -1592.12c-0.03,-120.67 17.8,-175.21 138.51,-205.38zm30601.52 -333.87c0,-72.03 69.14,-62.89 142.77,-62.87 257.44,0.06 241.8,-22.61 242.64,160.44 0.32,69.95 0.63,106.63 -89.08,106.61 -336.64,-0.02 -296.4,30.19 -296.33,-204.18zm-591.22 5.11c0.02,-45.05 23.53,-67.98 76.78,-67.98l233.4 0c52.23,0 75.2,24.49 75.2,67.98 0.03,155.37 24.31,199.4 -105.72,199.15 -314.92,-0.56 -279.69,28.35 -279.66,-199.15zm-2321 -64.2c31.99,-9.91 132.47,-3.78 174.3,-3.78 53.4,0 121.18,-8.68 151.38,18.36 28.68,25.66 17.46,97.37 17.53,136.94 0.22,126.35 -8.05,111.75 -218.05,111.75 -179.88,0.02 -167.21,0.29 -167.38,-152.84 -0.05,-45.28 -7.98,-94.9 42.22,-110.43zm-633.37 69.34c0.05,-47.74 19.85,-73.12 76.75,-73.12l233.4 -0.02c49.5,0 75.21,20.91 75.21,62.89 0.05,140.08 25.58,204.2 -87.49,204.18 -328.85,-0.04 -298.02,30.01 -297.87,-193.93zm-2910.65 -69.3c31.87,-9.95 132.56,-3.82 174.28,-3.82 53.41,0 121.15,-8.82 151.11,18.66 29.02,26.61 17.7,96.74 17.8,136.64 0.29,127.99 -15.17,111.75 -218.05,111.75 -176.92,0 -167.24,4.25 -167.34,-152.84 -0.02,-45.5 -8.49,-94.56 42.2,-110.39zm-591.61 1.92c27.83,-11.65 131.23,-5.74 170.09,-5.74 186.78,0 173.27,-7.65 173.51,150.17 0.07,47.38 7.71,95.43 -40.39,111.75 -26.43,8.95 -134.28,5.13 -169.97,5.13 -188.11,0 -174.91,1.72 -175.05,-147.7 -0.05,-57.13 -12.07,-91.06 41.81,-113.61zm-2952.44 -1.96c30.76,-9.16 133.58,-3.78 174.28,-3.78 174.38,0 168.62,-9.81 168.96,155.3 0.1,49.89 6.34,94.3 -46.31,108.13 -27.45,7.2 -134.93,3.62 -171.79,3.62 -177.03,0.02 -167.29,5.79 -167.36,-152.84 -0.02,-46 -8,-95.47 42.22,-110.43zm-544.36 263.27c-103.03,0 -89.06,-50.8 -89.06,-127.16 0.03,-163.31 -16.85,-139.89 310.18,-139.89 48.73,0 75.26,22 75.26,62.87 -0.03,132.57 25.22,204.16 -87.54,204.18l-208.84 0zm-2409.57 -263.11c29.69,-9.26 133.96,-3.94 173.82,-3.94 183.25,0 168.59,-3.06 168.88,155.3 0.24,127.02 -9.84,111.75 -218.02,111.75 -51.92,0 -118.3,8.09 -148.33,-18.64 -30.67,-27.28 -18.96,-91.77 -19.01,-134.2 -0.05,-45.88 -7.71,-94.54 42.66,-110.27zm-632.31 58.93c0,-41.9 25.44,-62.85 75.2,-62.87l233.41 0c53.46,0 75.2,23.23 75.2,67.98 0.05,136.44 25.03,199.03 -87.49,199.07 -337.21,0.1 -296.39,30.11 -296.32,-204.18zm-549.68 -57.17c30.49,-12.76 129.16,-5.7 170.36,-5.7 183.4,0 173.43,-9.12 173.48,150.17 0.03,47.64 6.34,94.54 -40.67,111.46 -16.3,5.89 -287.62,16.12 -323.07,-8.73 -33.13,-23.26 -21.62,-90.96 -21.62,-133.55 0,-58.28 -13.13,-90.74 41.52,-113.65zm-2362.54 -1.82c32.5,-10.01 132.1,-3.88 174.3,-3.88 183.06,0 168.57,-3.28 168.93,155.3 0.29,127.08 -11.51,111.75 -218.07,111.75 -176.82,0.02 -167.19,3.52 -167.34,-152.84 -0.04,-45.26 -8.48,-94.74 42.18,-110.33zm-591.49 1.96c30.2,-12.9 129.11,-5.84 170,-5.84 174.88,0 173.26,-14.87 173.5,150.17 0.07,47.07 7.79,95.85 -40.28,111.81 -14.08,4.67 -285.08,16.92 -322.57,-9.89 -34.14,-24.41 -22.53,-90.15 -22.56,-132.74 -0.02,-57.78 -11.8,-90.58 41.91,-113.51zm-2952.58 -2c32.81,-10.01 131.89,-3.84 174.32,-3.84 178.78,0 168.29,-5.08 168.91,155.3 0.51,128.19 -17.82,111.75 -218.04,111.75 -177.28,0.02 -167.22,4.9 -167.34,-152.84 -0.05,-45.44 -8.44,-94.92 42.15,-110.37zm-591.95 1.86c30.49,-12.72 129.2,-5.7 170.48,-5.7 185.94,0 173.19,-8.13 173.51,150.17 0.26,132.72 -13.23,116.88 -210.36,116.88 -181.44,0 -174.88,9.73 -175.03,-147.7 -0.05,-56.95 -12.45,-91.14 41.4,-113.65zm-2906.76 261.37c-107.51,0 -87.54,-58.78 -87.49,-137.45 0.05,-149.56 -14.29,-128.19 277.93,-129.68 64.2,-0.35 105.86,4.77 105.86,62.93 0.08,141.47 25.61,204.18 -87.46,204.18l-208.84 0.02zm-637.29 -261.39c30.45,-12.72 129.21,-5.68 170.49,-5.68 48.05,0 121.95,-11.19 153.84,16.38 32.94,28.45 19.56,92.05 19.66,133.79 0.24,132.8 -15.67,116.88 -210.36,116.88 -191.66,0 -174.98,1.3 -175.05,-147.7 -0.02,-58 -13.06,-90.88 41.42,-113.67zm-2362.35 -1.78c32.72,-10.01 131.67,-3.9 174.23,-3.9 53.35,0 121.32,-8.64 151.31,18.44 28.66,25.84 17.51,97.19 17.6,136.86 0.15,51.95 7.19,93.77 -45.82,107.93 -28.58,7.64 -134.06,3.82 -172.22,3.82 -179.22,0.02 -167.29,0.87 -167.37,-152.84 -0.04,-45.19 -8.41,-94.82 42.27,-110.31zm-532.12 263.13c-110.75,-0.04 -101.32,-36.74 -101.32,-122 0.02,-168.45 -20.75,-145.03 310.16,-145.05 56.92,0 75.2,26.69 75.2,73.14 0,148.03 22.81,193.99 -99.51,194.03 -61.49,0.02 -123.03,-0.02 -184.53,-0.12zm-3011.85 -263.15c32.23,-10.03 132.15,-3.88 174.16,-3.88 53.46,0 121.42,-8.8 151.13,18.64 27.89,25.78 17.71,97.65 17.78,136.66 0.22,128.44 -13.91,111.75 -218.05,111.75 -178.7,0.02 -167.24,3.34 -167.39,-152.84 -0.02,-45.72 -8.68,-94.48 42.37,-110.33zm-591.92 1.8c30.22,-12.72 129.25,-5.68 170.29,-5.68 48.21,0 121.1,-11.27 153.96,16.28 33.57,28.12 19.49,92.63 19.54,133.89 0.1,132.25 -11.58,116.88 -210.36,116.88 -180.18,0 -175.1,10.5 -175.07,-147.7 0,-56.87 -12.05,-91.1 41.64,-113.67zm-2994.44 62.3c0,-43.88 21.54,-67.98 75.3,-67.98l233.31 0c51.99,0 76.75,24.26 76.75,67.98 0.05,131.51 24.23,199.07 -89.04,199.07l-208.83 0c-53.3,0 -87.57,-14.8 -87.54,-60.38l0.05 -138.69zm-502.16 199.07c-104.35,0 -89.04,-50.27 -89.04,-127.16 -0.03,-163.31 -16.59,-139.89 310.16,-139.89 52.47,0 75.2,24.59 75.2,67.98 0.07,230.44 29.89,199.07 -296.32,199.07zm30079.53 -261.69c27.83,-11.25 131.88,-5.36 170.77,-5.36 184.53,0 173.31,-7.75 173.5,150.17 0.05,48.23 8.06,93.48 -40.4,111.34 -14.85,5.46 -288.11,17.23 -323.94,-8.33 -33.33,-23.76 -21.12,-92.19 -21.09,-133.83 0.02,-56.97 -12.94,-92.15 41.16,-113.99zm-3544.53 -0.29c28.85,-11.04 131.91,-5.07 171.25,-5.07 45.61,0 124.68,-9.55 154.11,16.17 29,25.34 17.87,91.51 17.87,134 0,48.47 11.76,92.78 -39.22,111.12 -15.48,5.56 -288.51,17.63 -323.6,-8.07 -32.4,-23.74 -21.04,-91.28 -21.06,-133.87 -0.03,-55.86 -13.18,-93.67 40.65,-114.28zm-1771.11 -0.83c32.53,-10.35 131.14,-4.24 173.41,-4.24 185.09,0 168.79,-4.11 168.94,155.3 0.04,51.45 9.74,95.29 -45.97,108.37 -30.35,7.14 -133.13,3.38 -172.11,3.38 -50.32,0 -117.45,7.87 -148.55,-18.32 -30.13,-25.36 -18.78,-95.45 -18.83,-134.52 -0.05,-46.29 -6.77,-94.05 43.11,-109.97zm-2363.8 0.27c28.1,-9.73 133.97,-4.51 172.47,-4.51 52.66,0 130.39,-8.42 156.48,19.39 22.8,24.29 15.45,97.69 15.55,135.91 0.09,48.13 3.87,91.35 -44.74,107.08 -28.15,9.1 -132.32,4.67 -170.29,4.67 -187.09,0 -170.36,4.21 -170.48,-152.84 -0.02,-53.32 -10.74,-91.79 41.01,-109.7zm-590.18 0.06c35.4,-11.69 128.33,-4.57 173,-4.57 55.37,0 127.39,-9.02 155.53,20.18 25.85,26.83 14.9,97.31 14.95,135.12 0.17,126.51 -11.1,111.75 -213.48,111.75 -51.58,0 -122.72,8.94 -154.09,-18.93 -31.17,-27.68 -17.82,-92.98 -17.87,-133.91 -0.04,-54.07 -10.59,-92.27 41.96,-109.64zm-2953.72 -0.02c29.48,-9.89 132.88,-4.55 172.32,-4.55 188.04,0 170.22,-3.81 170.46,155.3 0.17,128.98 -18.55,111.75 -213.45,111.75 -50.67,0 -123.28,9.81 -153.73,-19.21 -29.38,-27.99 -18.23,-93.57 -18.28,-133.63 -0.07,-53.26 -8.9,-92.35 42.68,-109.66zm-2363.58 0.58c29.06,-11.1 131.57,-5.13 171.16,-5.13 183.05,0 173.16,-8.46 173.5,150.17 0.29,131.54 -12.45,116.88 -210.36,116.88 -186.66,0 -175,9.51 -175.05,-147.7 -0.02,-55.53 -12.94,-93.73 40.75,-114.22zm-1771.4 -1.01c29.29,-9.4 133.92,-4.12 173.61,-4.12 184.96,0 168.47,-4.76 168.91,155.3 0.14,53.98 10.66,94.1 -46.46,108.13 -30.01,7.38 -132.8,3.62 -171.59,3.62 -183.52,0 -165.74,-2.24 -165.84,-152.84 -0.03,-45.86 -8.88,-93.95 41.37,-110.09zm-3543.87 0.02c31.02,-9.52 132.47,-4.14 173.43,-4.14 183.06,0 168.6,-3.91 168.91,155.3 0.24,128.19 -9.91,111.75 -218.05,111.75 -180.44,0.02 -167.12,-0.91 -167.34,-152.84 -0.07,-45.7 -7.4,-94.56 43.05,-110.07zm-2363.71 0.39c28.44,-9.77 133.56,-4.53 172.4,-4.53 187.07,0 170.19,-6.03 170.45,155.3 0.22,127.77 -16.78,111.75 -213.45,111.75 -183.47,0.02 -170.39,4.35 -170.46,-152.84 -0.02,-53.95 -11.41,-91.67 41.06,-109.68zm-2363.68 0.52c26.67,-10.84 133.58,-5.05 171.33,-5.05 180.98,0 173.17,-9.99 173.51,150.17 0.09,48.43 8.89,92.88 -40.65,111.14 -19.4,7.14 -287.33,15.87 -323.29,-8.29 -34.22,-23.02 -21.43,-92.3 -21.48,-133.67 -0.02,-56.14 -12.96,-92.52 40.58,-114.3zm-1771.05 -0.95c29.38,-9.4 133.87,-4.1 173.43,-4.1 191.66,0 168.69,0.3 168.91,155.3 0.17,125.95 -5.39,111.75 -218.05,111.75 -182.72,0.02 -165.77,-0.97 -165.86,-152.84 -0.03,-46.37 -8.49,-94.09 41.57,-110.11zm-3544.12 -0.02c29.43,-9.4 133.89,-4.08 173.5,-4.08 184.58,0 168.6,-3.36 168.91,155.3 0.25,127.46 -6.94,111.75 -218.04,111.75 -181.13,0.02 -167.2,-1.62 -167.34,-152.84 -0.05,-45.82 -7.06,-94.19 42.97,-110.13zm31266.79 58.79c0,-40.65 22.75,-62.87 72.2,-62.87l239.55 -0.04c50.39,0 72.21,22.54 72.21,62.91 -0.03,215.61 24.03,204.18 -188.91,204.18 -221.97,0 -195.05,13.17 -195.05,-204.18zm-2912.56 -57.9c30.13,-10.98 131.13,-4.97 171.64,-4.97 186.25,0 171.74,-8.09 172,155.3 0.2,129.57 -22.53,111.75 -215,111.75 -183.01,0 -170.38,4.84 -170.48,-152.84 -0.02,-54.4 -10.37,-90.17 41.84,-109.24zm-590.33 -0.44c29.72,-9.87 132.61,-4.53 172.32,-4.53 184.24,0 170.21,-6.88 170.46,155.3 0.19,129.12 -18.94,111.75 -213.46,111.75 -186.95,0 -171.81,0.87 -172,-152.84 -0.08,-53.3 -9.51,-92.35 42.68,-109.68zm-590.79 -0.49c28.12,-9.26 134.84,-4.04 173.46,-4.04 186.49,0 170.09,-2.92 170.45,155.3 0.13,47.75 6.34,93.01 -42.65,107.24 -30.16,8.76 -131.26,4.51 -170.8,4.51 -188.79,0 -171.88,0.39 -172,-152.84 -0.05,-48.09 -12.51,-92.35 41.54,-110.17zm-2362.88 1.17c33.47,-12.33 128.26,-5.21 171.59,-5.21 184.39,0 171.81,-8.36 171.98,155.3 0.15,128.72 -23.36,111.75 -214.97,111.75 -50.35,0 -122.51,9.97 -154.09,-18.89 -28.68,-26.18 -16.32,-92.94 -16.37,-133.95 -0.05,-55.87 -12.09,-89.14 41.86,-109zm-591.27 -0.7c35.67,-11.61 128.31,-4.51 173.21,-4.51 55.21,0 127,-8.98 155.76,19.94 25.58,25.76 14.68,97.67 14.72,135.36 0.12,126.07 -9.11,111.75 -213.47,111.75 -185.79,0 -171.91,-0.3 -172.01,-152.84 -0.05,-52.96 -9.53,-93.02 41.79,-109.7zm-5907.1 0.6c30.73,-11.16 130.53,-5.11 171.52,-5.11 186.83,0 171.72,-7.87 172.01,155.3 0.24,128.23 -19.03,111.75 -215,111.75 -51.92,0 -126.91,7.77 -154.16,-18.85 -24.52,-23.94 -16.25,-95.3 -16.3,-133.99 -0.03,-54.07 -10.06,-90.23 41.93,-109.1zm-1180.73 -0.56c37.17,-11.61 127.03,-4.55 172.95,-4.55 54.97,0 127.15,-9.02 155.32,20.38 25.71,26.84 15.07,96.26 15.14,134.92 0.24,126.8 -13.3,111.75 -213.45,111.75 -192.4,0 -171.96,-1.49 -172.01,-152.84 -0.02,-54.58 -11.41,-92.94 42.05,-109.66zm-2363.39 0.58c32.82,-12.25 128.79,-5.13 171.6,-5.13 183.39,0 171.61,-9.31 172,155.3 0.32,129.93 -24.74,111.75 -215,111.75 -185.91,0 -170.34,3.78 -170.48,-152.84 -0.05,-55.39 -10.5,-89.5 41.88,-109.08zm-591.24 -0.66c30.85,-10.48 131.88,-4.47 173.19,-4.47 55.3,0 127.05,-9.06 155.78,20.06 25.1,25.44 14.63,96.68 14.7,135.24 0.07,48.07 9.89,91.41 -43,107.2 -29.4,8.78 -131.69,4.55 -170.48,4.55 -190.82,0 -171.81,-4.18 -171.98,-152.84 -0.05,-53.1 -9.21,-92.37 41.79,-109.74zm-2362.84 0.48c28.61,-10.9 132.25,-4.95 171.28,-4.95 189.37,0 171.64,-8.36 171.98,155.3 0.27,125.91 -9.72,111.75 -214.97,111.75 -176.75,0 -170.27,9.32 -170.46,-152.84 -0.05,-54.03 -10.26,-89.26 42.17,-109.26zm-631.82 57.92c0,-44.57 25.65,-62.27 78.32,-62.85 319.98,-2.15 318.24,-35.39 307.18,201.77 -4.01,85.77 -106.13,65.26 -196.62,65.26 -208.88,0 -188.91,17.74 -188.88,-204.18zm-549.2 -58.32c35.02,-11.67 128.55,-4.55 173,-4.55 187.63,0 170.26,-2.96 170.48,155.3 0.05,51.69 7.35,92.76 -42.94,107.18 -31.03,8.9 -130.61,4.57 -170.54,4.57 -187.21,0 -171.81,0.35 -171.98,-152.84 -0.07,-54.17 -10.25,-92.25 41.98,-109.66zm-5907.29 0.66c33.11,-12.31 128.31,-5.21 171.5,-5.21 182.11,0 171.52,-10.22 172.03,155.3 0.39,129.91 -24.54,111.75 -215.03,111.75 -184.6,0 -170.38,4.31 -170.48,-152.84 -0.02,-55.73 -11.73,-89.06 41.98,-109zm-247.67 191.19c-0.39,77.47 -52.96,70.75 -133.63,70.65 -265.42,-0.28 -251.68,19.6 -251.85,-152.84 -0.07,-66.67 -8.42,-114.21 79.87,-114.21 345.44,0 305.56,-31.93 305.61,196.4zm-2706.31 -191.33c28.44,-11.02 132.13,-5.07 171.08,-5.07 187.92,0 171.82,-9.91 172.01,155.3 0.05,49.63 9.09,91.97 -44.18,107.55 -27.4,8.02 -133.77,4.2 -170.82,4.2 -184.75,0 -170.29,2.91 -170.48,-152.84 -0.08,-54.64 -10.06,-88.79 42.39,-109.14zm-590.6 -0.26c30.01,-10.84 131.72,-4.81 172.03,-4.81 54.08,0 130.25,-8.13 156.56,19.33 23.31,24.29 15.38,97.83 15.45,135.97 0.1,48.13 4.33,91.19 -43.89,107.1 -24.21,7.99 -136.17,4.65 -171.11,4.65 -49.94,0 -122.7,10.23 -154.14,-18.83 -28.63,-26.47 -16.32,-93.04 -16.34,-134.01 -0.03,-54.72 -11.73,-90.21 41.44,-109.4zm-590.66 -0.49c31.89,-10.43 131.35,-4.32 173.04,-4.32 188.4,0 170.17,-2.96 170.46,155.3 0.24,126.8 -12.5,111.75 -213.45,111.75 -53.69,0 -122.19,8.48 -153.77,-19.11 -30.11,-26.29 -18.19,-94.84 -18.24,-133.73 -0.07,-53.39 -10.06,-92.86 41.96,-109.89zm31308.55 0.81c30.42,-11.16 130.53,-5.13 171.25,-5.13 187.36,0 171.57,-7.65 172.03,155.3 0.34,126.7 -11.51,111.75 -215.02,111.75 -184.87,0 -170.31,2.77 -170.48,-152.84 -0.05,-54.5 -10.45,-89.76 42.22,-109.08zm-1181 -0.58c32.17,-10.64 130.78,-4.55 172.95,-4.55 187.44,0 170.22,-3.06 170.48,155.3 0.22,126.66 -10.85,111.75 -213.47,111.75 -53.59,0 -122.17,8.25 -154.26,-18.72 -32.11,-27 -17.72,-94.24 -17.75,-134.12 -0.05,-54.4 -10.64,-92.21 42.05,-109.66zm-8861.46 0.7c30.2,-11.3 130.77,-5.25 171.23,-5.25 47.42,0 126.88,-10.54 156.77,19.05 27.08,26.77 15.21,94.98 15.23,136.25 0.12,125.99 -9.96,111.75 -215,111.75 -51.8,0 -126.11,8.35 -153.89,-19.05 -24.62,-24.28 -16.54,-94.21 -16.59,-133.79 -0.07,-54.82 -10.2,-89.32 42.25,-108.96zm-13586.8 -0.28c28.65,-10.9 132.01,-4.97 171.5,-4.97 187.07,0 171.81,-7.55 171.98,155.3 0.14,127.55 -14.37,111.75 -214.98,111.75 -183.15,0.02 -170.31,4.09 -170.46,-152.84 -0.05,-54.86 -9.6,-89.62 41.96,-109.24zm-1180.85 -0.57c33.42,-10.53 130.05,-4.4 173.04,-4.4 186.52,0 170.1,-3.1 170.46,155.3 0.29,127.61 -15.33,111.75 -213.45,111.75 -194.25,0.02 -171.91,-4.33 -171.98,-152.84 -0.03,-53.71 -10.79,-93.2 41.93,-109.81zm-8861.25 0.71c30.27,-11.16 130.65,-5.11 171.11,-5.11 51.97,0 129.78,-9.23 157.01,18.92 24.96,25.79 14.92,96.48 14.97,136.38 0.17,126.47 -12.14,111.75 -214.98,111.75 -182.52,0 -170.21,4.84 -170.45,-152.84 -0.08,-54.9 -10.72,-89.56 42.34,-109.1z"/>
   <path class="fil0" d="M1121.13 2472.02c-23.3,-217.55 123.1,-393.34 314.14,-413.78 216.67,-23.18 392.79,131.89 410.07,319.05 44.75,484.75 -677.03,535.28 -724.21,94.73zm-759.27 -411.36c-103.71,-495.25 620.91,-595.56 710.4,-166.31 101.22,485.49 -615.19,620.94 -710.4,166.31zm2240.67 0c-97.27,453.32 -808.36,321.53 -709.79,-166.07 36.96,-182.83 230.17,-326.95 456.39,-268.68 166.3,42.83 298.33,225.34 253.4,434.75zm-1200.87 -713.47c271.67,-114.57 388.79,286.92 155.63,378.1 -256.86,100.46 -396.47,-276.54 -155.63,-378.1zm752.15 -604.85c458.78,-126.71 648.42,563.3 208.68,697.72 -481.14,147.07 -685.62,-565.99 -208.68,-697.72zm-1539.94 5.96c480.25,-146.44 659.84,573.67 202.99,695.97 -463.87,124.18 -665.1,-555.05 -202.99,-695.97zm736.98 -428.02c472.21,-200.11 669.12,505.96 269.53,669.11 -202.74,82.78 -401.1,-29.2 -472.41,-190.93 -40.14,-91.04 -37.97,-212.72 4.05,-301.77 53.06,-112.46 96.57,-133.07 198.83,-176.41zm1204.01 2243.79c293.75,-305.11 462.47,-739.05 400.4,-1227.83 -94.29,-742.61 -812.88,-1411.93 -1671.48,-1272.66 -854.85,138.67 -1378.79,873.15 -1272.11,1677.53 99.1,747.22 799.29,1382.52 1667.4,1268.06 264.7,-34.91 513.16,-142.38 719.99,-304.47 0.53,-19.35 132.45,-116.38 155.8,-140.63z"/>
  </g>
 </g>
</svg>
